<svg xmlns="http://www.w3.org/2000/svg" version="1.1" xmlns:xlink="http://www.w3.org/1999/xlink" xmlns:svgjs="http://svgjs.dev/svgjs" width="1440" height="560" preserveAspectRatio="none" viewBox="0 0 1440 560"><g mask="url(&quot;#SvgjsMask1006&quot;)" fill="none"><rect width="1440" height="560" x="0" y="0" fill="#0e2a47"></rect><path d="M939.62,760.509C985.166,759.901,1021.751,728.108,1045.222,689.071C1069.592,648.538,1083.567,599.562,1061.555,557.702C1038.221,513.328,989.754,488.016,939.62,488.244C889.878,488.47,843.323,515.085,819.589,558.801C796.834,600.713,804.631,650.973,829.019,691.956C852.792,731.906,893.136,761.129,939.62,760.509" fill="rgba(28, 83, 142, 0.4)" class="triangle-float1"></path><path d="M1390.181,716.412C1433.491,717.99,1472.056,688.575,1491.638,649.912C1509.541,614.564,1498.929,574.296,1479.706,539.648C1459.728,503.638,1431.358,466.439,1390.181,467.041C1349.621,467.634,1323.459,506.042,1305.08,542.203C1288.755,574.321,1284.954,610.585,1300.768,642.958C1318.914,680.104,1348.867,714.907,1390.181,716.412" fill="rgba(28, 83, 142, 0.4)" class="triangle-float3"></path><path d="M211.2529076546849 314.79692474627495L351.15700755633634 312.3548895987678 348.7149724088292 172.4507896971163 208.81087250717772 174.89282484462348z" fill="rgba(28, 83, 142, 0.4)" class="triangle-float1"></path><path d="M553.012,336.24C604.937,339.725,662.034,326.951,688.187,281.958C714.431,236.808,695.872,181.722,668.775,137.079C642.917,94.476,602.843,59.948,553.012,59.253C502.098,58.543,454.953,88.565,431.519,133.771C409.697,175.868,421.595,225.044,445.992,265.703C469.553,304.968,507.323,333.173,553.012,336.24" fill="rgba(28, 83, 142, 0.4)" class="triangle-float1"></path><path d="M-32.75082463970801 311.59856081187763L91.77796978497071 331.3219842211196-13.027401230466058 187.0697663871989z" fill="rgba(28, 83, 142, 0.4)" class="triangle-float1"></path><path d="M725.1181301152619 355.96638243494743L765.3656374315127 438.48600129944725 847.8852562960125 398.2384939831965 807.6377489797618 315.7188751186967z" fill="rgba(28, 83, 142, 0.4)" class="triangle-float1"></path><path d="M721.76 264.23 a160.08 160.08 0 1 0 320.16 0 a160.08 160.08 0 1 0 -320.16 0z" fill="rgba(28, 83, 142, 0.4)" class="triangle-float1"></path><path d="M413.923,398.735C430.048,398.148,445.9,392.897,454.739,379.397C464.491,364.503,467.738,345.315,459.088,329.755C450.227,313.815,432.155,305.534,413.923,305.97C396.437,306.388,381.401,316.862,372.352,331.83C362.934,347.409,358.01,367.102,367.618,382.565C376.866,397.449,396.412,399.372,413.923,398.735" fill="rgba(28, 83, 142, 0.4)" class="triangle-float3"></path><path d="M475.77533170812205 373.4763310615799L434.46997392067703 334.95846178647366 397.34584890174017 416.1754331051944z" fill="rgba(28, 83, 142, 0.4)" class="triangle-float2"></path><path d="M934.251,632.452C964.702,632.726,990.815,612.599,1005.764,586.069C1020.423,560.054,1022.959,528.038,1007.475,502.505C992.491,477.796,963.138,468.894,934.251,468.145C903.651,467.352,869.778,472.215,854.141,498.53C838.274,525.233,848.986,558.146,864.932,584.803C880.359,610.593,904.2,632.182,934.251,632.452" fill="rgba(28, 83, 142, 0.4)" class="triangle-float1"></path></g><defs><mask id="SvgjsMask1006"><rect width="1440" height="560" fill="#ffffff"></rect></mask><style>
                @keyframes float1 {
                    0%{transform: translate(0, 0)}
                    50%{transform: translate(-10px, 0)}
                    100%{transform: translate(0, 0)}
                }

                .triangle-float1 {
                    animation: float1 5s infinite;
                }

                @keyframes float2 {
                    0%{transform: translate(0, 0)}
                    50%{transform: translate(-5px, -5px)}
                    100%{transform: translate(0, 0)}
                }

                .triangle-float2 {
                    animation: float2 4s infinite;
                }

                @keyframes float3 {
                    0%{transform: translate(0, 0)}
                    50%{transform: translate(0, -10px)}
                    100%{transform: translate(0, 0)}
                }

                .triangle-float3 {
                    animation: float3 6s infinite;
                }
            </style></defs></svg>